# xmcd
#
# Track frame offsets: 
#        150
#        13495
#        24875
#        36397
#        47937
#        57885
#        68485
#        79310
#        89257
#        98132
#        108082
#        120165
#        132312
#        144160
#        154235
#        167110
#        177437
#        186967
#        199020
#        210747
#        222720
#        234137
#        245557
#        257852
#        270602
#        280352
#        293437
#        305142
#        315370
#        324957
#        336795
#
# Disc length: 4710 seconds
#
# Revision: 2
# Processed by: cddbd v1.5.2PL0 Copyright (c) Steve Scherf et al.
# Submitted via: ExactAudioCopyFreeDBPlugin 1.0
#
DISCID=c112641f
DTITLE=Anita Carter - Apalachian Angel - CD4
DYEAR=2004
DGENRE=Country
TTITLE0=That's What It's Like To Be Lonesome
TTITLE1=Twelve O'Clock High
TTITLE2=Carmel By The Sea
TTITLE3=Is It For Me
TTITLE4=I'm Counting On You
TTITLE5=I've Heard The Wind Blow Before
TTITLE6=I've Been Loving You Too Long (To Stop Now)
TTITLE7=Hang A Little Sign
TTITLE8=You Couldn't Get My Love Back (If You Tried)
TTITLE9=I'm Gonna Leave You
TTITLE10=I Won't Change For You
TTITLE11=The Trains Don't Go There Anymore
TTITLE12=Love Me Now (While I Am Living)
TTITLE13=I Don't Need You Anymore
TTITLE14=You Weren't Ashamed To Kiss Me (Last Night)
TTITLE15=It's My Life (And I'll Live It)
TTITLE16=Anita Carter and Waylon Jennings - All Of Me Belongs To You
TTITLE17=Anita Carter and Waylon Jennings - No One's Gonna Miss Me
TTITLE18=Anita Carter and Waylon Jennings - Rings Of Gold
TTITLE19=Anita Carter and Waylon Jennings - I Got You
TTITLE20=Anita Carter and Waylon Jennings - Twelve O'clock High (Origina
TTITLE20=l)
TTITLE21=Twelve O'clock High (1st overdub)
TTITLE22=Love Me Now (While I Am Living) (without trumpets)
TTITLE23=You Weren't Ashamed To Kiss Me (Last Night) (take 7)
TTITLE24=So Afraid
TTITLE25=To Be A Child Again
TTITLE26=Too Many Rivers
TTITLE27=Baby For You
TTITLE28=The Other Side Of The Coin
TTITLE29=A Couple Like Us
TTITLE30=Coming Off The Roads
EXTD=
EXTT0=
EXTT1=
EXTT2=
EXTT3=
EXTT4=
EXTT5=
EXTT6=
EXTT7=
EXTT8=
EXTT9=
EXTT10=
EXTT11=
EXTT12=
EXTT13=
EXTT14=
EXTT15=
EXTT16=
EXTT17=
EXTT18=
EXTT19=
EXTT20=
EXTT21=
EXTT22=
EXTT23=
EXTT24=
EXTT25=
EXTT26=
EXTT27=
EXTT28=
EXTT29=
EXTT30=
PLAYORDER=
